<svg width="45" height="34" viewBox="0 0 45 34" fill="none" xmlns="http://www.w3.org/2000/svg">
<path d="M22.5 33.5C21.8351 33.4993 21.1859 33.3325 20.6367 33.0213C12.5014 28.4366 8.97879 25.293 7.0358 23.3276C2.89518 19.1381 0.912853 14.837 0.968751 10.1791C1.03397 4.84156 6.19215 0.5 12.4673 0.5C17.0302 0.5 20.1906 2.63383 22.0311 4.41102C22.0894 4.46675 22.1614 4.51143 22.2423 4.54206C22.3232 4.57268 22.4111 4.58853 22.5 4.58853C22.5889 4.58853 22.6768 4.57268 22.7577 4.54206C22.8386 4.51143 22.9106 4.46675 22.9689 4.41102C24.8094 2.63211 27.9698 0.5 32.5327 0.5C38.8078 0.5 43.966 4.84156 44.0312 10.18C44.0871 14.8387 42.1028 19.1398 37.9642 23.3284C36.0212 25.2938 32.4986 28.4374 24.3633 33.0222C23.814 33.3331 23.1648 33.4996 22.5 33.5Z" fill="#FDF4E3"/>
</svg>
