<svg width="204" height="54" viewBox="0 0 204 54" fill="none" xmlns="http://www.w3.org/2000/svg">
<path d="M2.46591 7.4697H4.89205V23.4981H5.09091L16.2273 7.4697H18.6136V27.8333H16.1477V11.8447H15.9489L4.85227 27.8333H2.46591V7.4697ZM30.0707 28.1117C28.7582 28.1117 27.5882 27.8864 26.5607 27.4356C25.5399 26.9848 24.7279 26.3584 24.1246 25.5563C23.5281 24.7476 23.2032 23.8097 23.1502 22.7424H25.6559C25.7089 23.3987 25.9343 23.9654 26.332 24.4427C26.7298 24.9134 27.2501 25.2779 27.8931 25.5365C28.5361 25.795 29.2487 25.9242 30.0309 25.9242C30.9059 25.9242 31.6815 25.7718 32.3576 25.4669C33.0337 25.1619 33.564 24.7377 33.9485 24.1941C34.333 23.6506 34.5252 23.0208 34.5252 22.3049C34.5252 21.5559 34.3396 20.8963 33.9684 20.3262C33.5972 19.7495 33.0536 19.2988 32.3377 18.974C31.6218 18.6491 30.7468 18.4867 29.7127 18.4867H28.082V16.2992H29.7127C30.5214 16.2992 31.2307 16.1534 31.8406 15.8617C32.457 15.5701 32.9376 15.1591 33.2823 14.6288C33.6336 14.0985 33.8093 13.4754 33.8093 12.7595C33.8093 12.0701 33.6568 11.4702 33.3519 10.9598C33.047 10.4493 32.6161 10.0516 32.0593 9.76657C31.5091 9.48153 30.8595 9.33902 30.1104 9.33902C29.4078 9.33902 28.7449 9.46828 28.1218 9.7268C27.5053 9.97869 27.0015 10.3466 26.6104 10.8305C26.2193 11.3078 26.0072 11.8845 25.9741 12.5606H23.5877C23.6275 11.4934 23.949 10.5587 24.5522 9.75663C25.1554 8.94792 25.9442 8.31818 26.9187 7.86742C27.8997 7.41667 28.9769 7.19129 30.1502 7.19129C31.4097 7.19129 32.4902 7.4465 33.3917 7.95691C34.2932 8.4607 34.9859 9.12689 35.4698 9.95549C35.9537 10.7841 36.1957 11.679 36.1957 12.6402C36.1957 13.7869 35.8941 14.7647 35.2908 15.5734C34.6942 16.3821 33.8822 16.9422 32.8548 17.2538V17.4129C34.1407 17.625 35.145 18.1719 35.8675 19.0535C36.5901 19.9285 36.9513 21.0123 36.9513 22.3049C36.9513 23.4119 36.6497 24.4063 36.0465 25.2879C35.4499 26.1629 34.6346 26.8523 33.6005 27.3561C32.5664 27.8598 31.3898 28.1117 30.0707 28.1117ZM43.842 7.4697V27.8333H41.3761V7.4697H43.842ZM48.2866 16.7367V18.9242H42.0522V16.7367H48.2866ZM65.5579 17.6515C65.5579 19.7992 65.1701 21.6553 64.3945 23.2197C63.619 24.7841 62.555 25.9905 61.2028 26.839C59.8505 27.6875 58.306 28.1117 56.5692 28.1117C54.8325 28.1117 53.288 27.6875 51.9357 26.839C50.5835 25.9905 49.5195 24.7841 48.744 23.2197C47.9684 21.6553 47.5806 19.7992 47.5806 17.6515C47.5806 15.5038 47.9684 13.6477 48.744 12.0833C49.5195 10.5189 50.5835 9.3125 51.9357 8.46402C53.288 7.61553 54.8325 7.19129 56.5692 7.19129C58.306 7.19129 59.8505 7.61553 61.2028 8.46402C62.555 9.3125 63.619 10.5189 64.3945 12.0833C65.1701 13.6477 65.5579 15.5038 65.5579 17.6515ZM63.1715 17.6515C63.1715 15.8883 62.8765 14.4001 62.2866 13.187C61.7032 11.974 60.9111 11.0559 59.9102 10.4328C58.9158 9.80966 57.8022 9.49811 56.5692 9.49811C55.3363 9.49811 54.2193 9.80966 53.2184 10.4328C52.2241 11.0559 51.4319 11.974 50.842 13.187C50.2586 14.4001 49.967 15.8883 49.967 17.6515C49.967 19.4148 50.2586 20.9029 50.842 22.116C51.4319 23.3291 52.2241 24.2472 53.2184 24.8703C54.2193 25.4934 55.3363 25.8049 56.5692 25.8049C57.8022 25.8049 58.9158 25.4934 59.9102 24.8703C60.9111 24.2472 61.7032 23.3291 62.2866 22.116C62.8765 20.9029 63.1715 19.4148 63.1715 17.6515ZM69.7042 7.4697H72.6474L79.5678 24.3731H79.8065L86.7269 7.4697H89.6701V27.8333H87.3633V12.3617H87.1644L80.8008 27.8333H78.5735L72.2099 12.3617H72.011V27.8333H69.7042V7.4697ZM94.6143 7.4697H97.0405V23.4981H97.2393L108.376 7.4697H110.762V27.8333H108.296V11.8447H108.097L97.0007 27.8333H94.6143V7.4697ZM115.696 27.8333V7.4697H118.162V16.5379H129.02V7.4697H131.486V27.8333H129.02V18.7254H118.162V27.8333H115.696ZM148.395 27.8333L141.395 18.4867H138.889V27.8333H136.423V7.4697H138.889V16.2992H139.963L148.116 7.4697H151.059L142.826 16.4186L151.338 27.8333H148.395ZM155.36 27.8333H152.775L160.252 7.4697H162.797L170.275 27.8333H167.689L161.604 10.6913H161.445L155.36 27.8333ZM156.314 19.8788H166.735V22.0663H156.314V19.8788Z" fill="#FDF4E3"/>
<path d="M192.5 35.9375C192.211 35.9372 191.93 35.8645 191.691 35.729C188.161 33.7318 186.632 32.3625 185.789 31.5063C183.992 29.6814 183.132 27.8078 183.156 25.7788C183.185 23.4537 185.423 21.5625 188.146 21.5625C190.126 21.5625 191.498 22.492 192.297 23.2662C192.322 23.2904 192.353 23.3099 192.388 23.3232C192.423 23.3366 192.461 23.3435 192.5 23.3435C192.539 23.3435 192.577 23.3366 192.612 23.3232C192.647 23.3099 192.678 23.2904 192.704 23.2662C193.502 22.4913 194.874 21.5625 196.854 21.5625C199.577 21.5625 201.815 23.4537 201.844 25.7792C201.868 27.8085 201.007 29.6821 199.211 31.5067C198.368 32.3628 196.839 33.7322 193.309 35.7294C193.07 35.8648 192.788 35.9373 192.5 35.9375Z" fill="#FDF4E3"/>
<path d="M79.872 50.8853C79.428 50.8853 79.038 50.8493 78.702 50.7773C78.366 50.7053 78.078 50.5313 77.838 50.2553C77.586 49.9793 77.46 49.5533 77.46 48.9773C77.46 47.7413 77.97 46.0133 78.99 43.7933C80.022 41.5613 81.276 39.5933 82.752 37.8893C84.24 36.1853 85.65 35.3333 86.982 35.3333C87.558 35.3333 88.032 35.4173 88.404 35.5853L85.578 48.8333H82.986L85.578 36.6113C84.714 37.0673 83.82 38.1353 82.896 39.8153C81.972 41.4833 81.192 43.2953 80.556 45.2513C79.932 47.2073 79.62 48.7493 79.62 49.8773C79.62 50.3333 79.704 50.6693 79.872 50.8853ZM94.7549 48.9053C93.8669 48.9053 93.1649 48.6773 92.6489 48.2213C92.1329 47.7653 91.8749 47.0453 91.8749 46.0613C91.8749 45.6053 91.9289 45.0893 92.0369 44.5133H90.6869L89.7869 48.8333H87.1949L89.1029 39.8333H91.6949L90.9389 43.4333H92.3429C92.7029 42.3653 93.2549 41.4713 93.9989 40.7513C94.7549 40.0313 95.6909 39.6713 96.8069 39.6713C98.3429 39.6713 99.1109 40.6313 99.1109 42.5513V42.5693C99.1469 42.5813 99.2129 42.5873 99.3089 42.5873C99.7049 42.5873 100.161 42.4853 100.677 42.2813C101.193 42.0653 101.661 41.8073 102.081 41.5073L102.243 41.9933C101.895 42.3653 101.439 42.6833 100.875 42.9473C100.323 43.1993 99.7169 43.3793 99.0569 43.4873C98.9609 44.5793 98.7149 45.5333 98.3189 46.3493C97.9229 47.1653 97.4129 47.7953 96.7889 48.2393C96.1649 48.6833 95.4869 48.9053 94.7549 48.9053ZM95.4749 47.2853C95.7629 47.2853 96.0509 47.1233 96.3389 46.7993C96.6269 46.4633 96.8789 46.0133 97.0949 45.4493C97.3109 44.8733 97.4669 44.2373 97.5629 43.5413C97.2389 43.4693 97.0769 43.2173 97.0769 42.7853C97.0769 42.2933 97.2629 41.9693 97.6349 41.8133C97.6109 41.4173 97.5509 41.1473 97.4549 41.0033C97.3589 40.8473 97.1909 40.7693 96.9509 40.7693C96.5549 40.7693 96.1709 41.0573 95.7989 41.6333C95.4269 42.2093 95.1269 42.8993 94.8989 43.7033C94.6709 44.5073 94.5569 45.2153 94.5569 45.8273C94.5569 46.4033 94.6229 46.7933 94.7549 46.9973C94.8869 47.1893 95.1269 47.2853 95.4749 47.2853ZM102.671 48.9053C101.747 48.9053 101.033 48.6593 100.529 48.1673C100.037 47.6633 99.7914 46.8953 99.7914 45.8633C99.7914 44.9273 99.9834 44.0333 100.367 43.1813C100.763 42.3293 101.333 41.6393 102.077 41.1113C102.821 40.5833 103.697 40.3193 104.705 40.3193L105.011 40.3373C104.819 40.1093 104.525 39.7973 104.129 39.4013C103.685 38.9693 103.355 38.6033 103.139 38.3033C102.923 37.9913 102.815 37.6493 102.815 37.2773C102.815 36.8213 102.971 36.4853 103.283 36.2693C103.595 36.0533 104.087 35.9453 104.759 35.9453H107.495H108.053C108.365 35.9453 108.593 35.9273 108.737 35.8913C108.881 35.8553 108.995 35.7833 109.079 35.6753C109.163 35.5553 109.241 35.3573 109.313 35.0813H110.105C109.913 36.0173 109.703 36.7133 109.475 37.1693C109.247 37.6253 108.947 37.9373 108.575 38.1053C108.215 38.2733 107.711 38.3573 107.063 38.3573H105.335C105.263 38.3573 105.203 38.3753 105.155 38.4113C105.119 38.4353 105.101 38.4893 105.101 38.5733C105.101 38.6213 105.203 38.7773 105.407 39.0413C105.851 39.5813 106.229 40.1633 106.541 40.7873C106.853 41.4113 107.009 42.1433 107.009 42.9833C107.009 43.8953 106.829 44.8133 106.469 45.7373C106.121 46.6493 105.617 47.4053 104.957 48.0053C104.297 48.6053 103.535 48.9053 102.671 48.9053ZM103.355 47.2853C103.847 47.2853 104.255 46.9853 104.579 46.3853C104.903 45.7853 105.137 45.1073 105.281 44.3513C105.437 43.5953 105.515 43.0133 105.515 42.6053C105.515 42.1493 105.461 41.8373 105.353 41.6693C105.245 41.5013 105.071 41.4173 104.831 41.4173C104.303 41.4173 103.859 41.7053 103.499 42.2813C103.139 42.8573 102.869 43.5113 102.689 44.2433C102.509 44.9753 102.419 45.5453 102.419 45.9533C102.419 46.4693 102.485 46.8233 102.617 47.0153C102.761 47.1953 103.007 47.2853 103.355 47.2853ZM110.388 48.9053C109.5 48.9053 108.798 48.6773 108.282 48.2213C107.766 47.7653 107.508 47.0453 107.508 46.0613C107.508 45.2453 107.676 44.3393 108.012 43.3433C108.348 42.3473 108.888 41.4893 109.632 40.7693C110.376 40.0373 111.312 39.6713 112.44 39.6713C113.976 39.6713 114.744 40.6313 114.744 42.5513V42.5693C114.78 42.5813 114.846 42.5873 114.942 42.5873C115.338 42.5873 115.794 42.4853 116.31 42.2813C116.826 42.0653 117.294 41.8073 117.714 41.5073L117.876 41.9933C117.528 42.3653 117.072 42.6833 116.508 42.9473C115.956 43.1993 115.35 43.3793 114.69 43.4873C114.594 44.5793 114.348 45.5333 113.952 46.3493C113.556 47.1653 113.046 47.7953 112.422 48.2393C111.798 48.6833 111.12 48.9053 110.388 48.9053ZM111.108 47.2853C111.396 47.2853 111.684 47.1233 111.972 46.7993C112.26 46.4633 112.512 46.0133 112.728 45.4493C112.944 44.8733 113.1 44.2373 113.196 43.5413C112.872 43.4693 112.71 43.2173 112.71 42.7853C112.71 42.2933 112.896 41.9693 113.268 41.8133C113.244 41.4173 113.184 41.1473 113.088 41.0033C112.992 40.8473 112.824 40.7693 112.584 40.7693C112.188 40.7693 111.804 41.0573 111.432 41.6333C111.06 42.2093 110.76 42.8993 110.532 43.7033C110.304 44.5073 110.19 45.2153 110.19 45.8273C110.19 46.4033 110.256 46.7933 110.388 46.9973C110.52 47.1893 110.76 47.2853 111.108 47.2853ZM118.406 48.9053C117.41 48.9053 116.66 48.6113 116.156 48.0233C115.664 47.4353 115.418 46.6493 115.418 45.6653C115.418 44.7053 115.676 43.3853 116.192 41.7053C116.708 40.0133 117.392 38.5253 118.244 37.2413C119.096 35.9573 120.014 35.3153 120.998 35.3153C122.318 35.3153 122.978 36.1373 122.978 37.7813C122.978 38.9453 122.486 40.3853 121.502 42.1013C121.754 42.2213 121.982 42.4013 122.186 42.6413C122.714 42.6413 123.284 42.5273 123.896 42.2993C124.52 42.0713 125.048 41.8073 125.48 41.5073L125.642 41.9933C125.318 42.3413 124.886 42.6473 124.346 42.9113C123.818 43.1633 123.236 43.3433 122.6 43.4513C122.66 43.6793 122.69 43.9793 122.69 44.3513C122.69 45.1553 122.516 45.9053 122.168 46.6013C121.82 47.2973 121.322 47.8553 120.674 48.2753C120.026 48.6953 119.27 48.9053 118.406 48.9053ZM119.198 47.2853C119.57 47.2853 119.894 47.1593 120.17 46.9073C120.458 46.6553 120.674 46.3373 120.818 45.9533C120.974 45.5693 121.052 45.1733 121.052 44.7653C121.052 44.3213 120.998 43.9913 120.89 43.7753C120.806 43.8113 120.716 43.8413 120.62 43.8653C120.524 43.8773 120.398 43.8833 120.242 43.8833C119.954 43.8833 119.726 43.8053 119.558 43.6493C119.39 43.4933 119.306 43.2773 119.306 43.0013C119.306 42.6413 119.414 42.3773 119.63 42.2093C119.858 42.0413 120.17 41.9453 120.566 41.9213C120.914 41.2853 121.208 40.5833 121.448 39.8153C121.7 39.0353 121.826 38.3333 121.826 37.7093C121.826 37.3493 121.778 37.0973 121.682 36.9533C121.598 36.7973 121.448 36.7193 121.232 36.7193C120.764 36.7193 120.284 37.3013 119.792 38.4653C119.312 39.6293 118.91 40.9553 118.586 42.4433C118.262 43.9313 118.1 45.0233 118.1 45.7193C118.1 46.7633 118.466 47.2853 119.198 47.2853ZM126.348 48.9413C125.52 48.9413 124.86 48.7373 124.368 48.3293C123.888 47.9213 123.648 47.3573 123.648 46.6373C123.648 46.2773 123.69 45.9353 123.774 45.6113L124.998 39.8333H127.59L126.978 42.7493C127.362 42.5933 127.68 42.4973 127.932 42.4613C128.196 42.4133 128.478 42.3893 128.778 42.3893C129.498 42.3893 130.062 42.5993 130.47 43.0193C130.89 43.4393 131.1 44.0273 131.1 44.7833C131.1 45.3473 130.932 45.9533 130.596 46.6013C130.26 47.2493 129.732 47.8013 129.012 48.2573C128.304 48.7133 127.416 48.9413 126.348 48.9413ZM126.978 47.4113C127.278 47.4113 127.56 47.2793 127.824 47.0153C128.1 46.7513 128.322 46.4213 128.49 46.0253C128.658 45.6293 128.742 45.2513 128.742 44.8913C128.742 44.5313 128.658 44.2493 128.49 44.0453C128.322 43.8293 128.082 43.7213 127.77 43.7213C127.638 43.7213 127.452 43.7573 127.212 43.8293C126.984 43.9013 126.816 43.9733 126.708 44.0453L126.258 46.1693C126.222 46.2653 126.204 46.4333 126.204 46.6733C126.204 47.1653 126.462 47.4113 126.978 47.4113ZM142.027 48.9413C141.439 48.9413 140.959 48.7613 140.587 48.4013C140.227 48.0293 140.047 47.5433 140.047 46.9433C140.047 46.6553 140.089 46.3313 140.173 45.9713C140.185 45.8873 140.203 45.7613 140.227 45.5933C140.251 45.4253 140.263 45.2873 140.263 45.1793C140.263 44.9273 140.209 44.7293 140.101 44.5853C139.993 44.4413 139.831 44.3693 139.615 44.3693C139.447 44.3693 139.291 44.4173 139.147 44.5133C139.003 44.5973 138.763 44.7713 138.427 45.0353L137.635 48.8333H135.043L136.969 39.8333H139.561L138.787 43.3973C139.411 42.7733 139.975 42.1793 140.479 41.6153C140.971 41.0873 141.343 40.7033 141.595 40.4633C141.859 40.2113 142.123 40.0193 142.387 39.8873C142.651 39.7433 142.939 39.6713 143.251 39.6713C143.671 39.6713 143.989 39.7793 144.205 39.9953C144.421 40.2113 144.529 40.5053 144.529 40.8773C144.529 41.2373 144.427 41.5193 144.223 41.7233C144.031 41.9273 143.755 42.0293 143.395 42.0293C143.047 42.0293 142.795 41.9393 142.639 41.7593C142.483 41.5673 142.405 41.3513 142.405 41.1113C142.165 41.2673 141.943 41.4413 141.739 41.6333C141.547 41.8133 141.283 42.0833 140.947 42.4433C140.515 42.9113 140.293 43.1513 140.281 43.1633C140.521 43.1153 140.773 43.0913 141.037 43.0913C142.201 43.0913 142.783 43.6193 142.783 44.6753C142.783 44.9393 142.735 45.2753 142.639 45.6833C142.555 45.9953 142.513 46.2593 142.513 46.4753C142.513 46.9553 142.765 47.1953 143.269 47.1953C143.581 47.1953 143.821 47.1353 143.989 47.0153C143.929 47.6513 143.725 48.1313 143.377 48.4553C143.029 48.7793 142.579 48.9413 142.027 48.9413ZM155.144 48.9413C154.424 48.9413 153.878 48.7673 153.506 48.4193C153.146 48.0593 152.966 47.5673 152.966 46.9433C152.966 46.7753 153.008 46.4393 153.092 45.9353C153.152 45.6353 153.182 45.4013 153.182 45.2333C153.182 44.6573 152.954 44.3693 152.498 44.3693C152.342 44.3693 152.192 44.4173 152.048 44.5133C151.916 44.5973 151.682 44.7713 151.346 45.0353L150.554 48.8333H147.962L149.888 39.8333H152.48L151.706 43.3973C152.522 42.4373 153.17 41.7053 153.65 41.2013C154.13 40.6973 154.568 40.3193 154.964 40.0673C155.372 39.8033 155.768 39.6713 156.152 39.6713C156.896 39.6713 157.268 40.0673 157.268 40.8593C157.268 41.2193 157.166 41.5073 156.962 41.7233C156.77 41.9273 156.494 42.0293 156.134 42.0293C155.798 42.0293 155.546 41.9393 155.378 41.7593C155.21 41.5673 155.132 41.3513 155.144 41.1113C154.916 41.2553 154.712 41.4173 154.532 41.5973C154.352 41.7773 154.154 42.0113 153.938 42.2993C153.686 42.6353 153.44 42.9233 153.2 43.1633C153.44 43.1153 153.692 43.0913 153.956 43.0913C154.58 43.0913 155.018 43.2293 155.27 43.5053C155.534 43.7813 155.666 44.2013 155.666 44.7653C155.666 44.9333 155.63 45.2093 155.558 45.5933C155.486 46.0013 155.45 46.3133 155.45 46.5293C155.45 46.9733 155.69 47.1953 156.17 47.1953C156.506 47.1953 156.77 47.0813 156.962 46.8533C157.166 46.6253 157.4 46.2113 157.664 45.6113H158.42C157.664 47.8313 156.572 48.9413 155.144 48.9413ZM160.292 48.9053C159.404 48.9053 158.702 48.6773 158.186 48.2213C157.67 47.7653 157.412 47.0453 157.412 46.0613C157.412 45.2453 157.58 44.3393 157.916 43.3433C158.252 42.3473 158.792 41.4893 159.536 40.7693C160.28 40.0373 161.216 39.6713 162.344 39.6713C163.88 39.6713 164.648 40.6313 164.648 42.5513V42.5693C164.684 42.5813 164.75 42.5873 164.846 42.5873C165.242 42.5873 165.698 42.4853 166.214 42.2813C166.73 42.0653 167.198 41.8073 167.618 41.5073L167.78 41.9933C167.432 42.3653 166.976 42.6833 166.412 42.9473C165.86 43.1993 165.254 43.3793 164.594 43.4873C164.498 44.5793 164.252 45.5333 163.856 46.3493C163.46 47.1653 162.95 47.7953 162.326 48.2393C161.702 48.6833 161.024 48.9053 160.292 48.9053ZM161.012 47.2853C161.3 47.2853 161.588 47.1233 161.876 46.7993C162.164 46.4633 162.416 46.0133 162.632 45.4493C162.848 44.8733 163.004 44.2373 163.1 43.5413C162.776 43.4693 162.614 43.2173 162.614 42.7853C162.614 42.2933 162.8 41.9693 163.172 41.8133C163.148 41.4173 163.088 41.1473 162.992 41.0033C162.896 40.8473 162.728 40.7693 162.488 40.7693C162.092 40.7693 161.708 41.0573 161.336 41.6333C160.964 42.2093 160.664 42.8993 160.436 43.7033C160.208 44.5073 160.094 45.2153 160.094 45.8273C160.094 46.4033 160.16 46.7933 160.292 46.9973C160.424 47.1893 160.664 47.2853 161.012 47.2853ZM169.894 47.9513C169.282 48.6113 168.586 48.9413 167.806 48.9413C167.026 48.9413 166.414 48.7013 165.97 48.2213C165.538 47.7413 165.322 47.0153 165.322 46.0433C165.322 44.6873 165.7 43.3373 166.456 41.9933C166.828 41.3213 167.32 40.7813 167.932 40.3733C168.544 39.9533 169.216 39.7433 169.948 39.7433C170.932 39.7433 171.424 40.0733 171.424 40.7333L172.324 36.5933L174.808 36.2333L173.836 40.5173C174.424 40.0013 175.126 39.7433 175.942 39.7433C177.406 39.7433 178.138 40.6913 178.138 42.5873C178.138 43.7393 177.982 44.7953 177.67 45.7553C177.358 46.7033 176.86 47.4713 176.176 48.0593C175.504 48.6473 174.658 48.9413 173.638 48.9413C172.918 48.9413 172.432 48.7253 172.18 48.2933L171.244 52.6853L168.706 53.3333L169.894 47.9513ZM168.328 47.0333C168.436 47.1413 168.592 47.1953 168.796 47.1953C169.072 47.1953 169.354 47.0873 169.642 46.8713C169.93 46.6553 170.146 46.3373 170.29 45.9173L171.244 41.4713C171.172 41.0633 170.908 40.8593 170.452 40.8593C170.02 40.8593 169.594 41.1593 169.174 41.7593C168.778 42.3473 168.478 43.0193 168.274 43.7753C168.07 44.5913 167.968 45.2573 167.968 45.7733C167.968 46.1213 168.004 46.4033 168.076 46.6193C168.148 46.8233 168.232 46.9613 168.328 47.0333ZM173.152 47.3753C173.668 47.3753 174.118 47.1353 174.502 46.6553C174.886 46.1753 175.174 45.5633 175.366 44.8193C175.57 44.0753 175.672 43.3133 175.672 42.5333C175.672 41.5373 175.372 41.0393 174.772 41.0393C174.28 41.0393 173.866 41.3333 173.53 41.9213L172.468 46.9613C172.564 47.2373 172.792 47.3753 173.152 47.3753ZM181.401 48.9413C180.525 48.9413 179.841 48.7133 179.349 48.2573C178.857 47.7893 178.611 47.0633 178.611 46.0793C178.611 45.2513 178.773 44.3393 179.097 43.3433C179.421 42.3473 179.949 41.4893 180.681 40.7693C181.413 40.0373 182.343 39.6713 183.471 39.6713C184.791 39.6713 185.451 40.2473 185.451 41.3993C185.451 42.0713 185.259 42.6893 184.875 43.2533C184.491 43.8173 183.981 44.2733 183.345 44.6213C182.709 44.9573 182.031 45.1493 181.311 45.1973C181.287 45.4613 181.275 45.6413 181.275 45.7373C181.275 46.7333 181.647 47.2313 182.391 47.2313C182.727 47.2313 183.087 47.1413 183.471 46.9613C183.855 46.7813 184.203 46.5533 184.515 46.2773C184.191 48.0533 183.153 48.9413 181.401 48.9413ZM181.437 44.3333C181.893 44.3213 182.319 44.1713 182.715 43.8833C183.123 43.5953 183.447 43.2293 183.687 42.7853C183.939 42.3293 184.065 41.8553 184.065 41.3633C184.065 40.8713 183.915 40.6253 183.615 40.6253C183.195 40.6253 182.775 41.0093 182.355 41.7773C181.947 42.5333 181.641 43.3853 181.437 44.3333Z" fill="#FDF4E3"/>
</svg>
