<svg width="18" height="19" viewBox="0 0 18 19" fill="none" xmlns="http://www.w3.org/2000/svg">
<path d="M10.7081 4.50008C11.522 4.65889 12.2701 5.05696 12.8565 5.64336C13.4429 6.22976 13.8409 6.9778 13.9997 7.79175M10.7081 1.16675C12.3991 1.35461 13.9761 2.11189 15.1799 3.31425C16.3838 4.51662 17.1431 6.09259 17.3331 7.78341M7.52222 11.0526C6.52091 10.0513 5.73025 8.91912 5.15025 7.71111C5.10036 7.6072 5.07542 7.55524 5.05625 7.4895C4.98815 7.25587 5.03707 6.96899 5.17874 6.77113C5.21861 6.71546 5.26624 6.66783 5.3615 6.57257C5.65284 6.28123 5.79851 6.13556 5.89375 5.98908C6.25291 5.43667 6.25291 4.72452 5.89375 4.17211C5.79851 4.02563 5.65284 3.87996 5.3615 3.58862L5.19911 3.42623C4.75624 2.98336 4.53481 2.76192 4.29699 2.64164C3.82402 2.40241 3.26547 2.40241 2.7925 2.64164C2.55468 2.76192 2.33325 2.98336 1.89038 3.42623L1.75902 3.55759C1.31767 3.99894 1.09699 4.21962 0.928449 4.51964C0.741432 4.85257 0.606964 5.36964 0.6081 5.75149C0.609124 6.09562 0.675877 6.3308 0.809383 6.80117C1.52686 9.32901 2.88059 11.7143 4.87057 13.7043C6.86055 15.6943 9.24585 17.048 11.7737 17.7655C12.2441 17.899 12.4792 17.9657 12.8234 17.9668C13.2052 17.9679 13.7223 17.8334 14.0552 17.6464C14.3552 17.4779 14.5759 17.2572 15.0173 16.8158L15.1486 16.6845C15.5915 16.2416 15.8129 16.0202 15.9332 15.7824C16.1724 15.3094 16.1724 14.7508 15.9332 14.2779C15.8129 14.0401 15.5915 13.8186 15.1486 13.3758L14.9862 13.2134C14.6949 12.922 14.5492 12.7764 14.4028 12.6811C13.8503 12.3219 13.1382 12.322 12.5858 12.6811C12.4393 12.7764 12.2936 12.922 12.0023 13.2134C11.907 13.3086 11.8594 13.3562 11.8037 13.3961C11.6059 13.5378 11.319 13.5867 11.0854 13.5186C11.0196 13.4994 10.9677 13.4745 10.8638 13.4246C9.65574 12.8446 8.52354 12.054 7.52222 11.0526Z" stroke="white" stroke-linecap="round" stroke-linejoin="round"/>
</svg>
