<svg width="29" height="28" viewBox="0 0 29 28" fill="none" xmlns="http://www.w3.org/2000/svg">
<rect x="0.5" y="0.5" width="28" height="27" rx="8.5" stroke="white"/>
<g clip-path="url(#clip0_7_32)">
<path d="M12.8852 15.8559L12.6371 19.1132C12.9921 19.1132 13.1458 18.9709 13.3302 18.8L14.9946 17.3154L18.4433 19.6727C19.0758 20.0017 19.5214 19.8284 19.6921 19.1296L21.9558 9.22923L21.9564 9.22865C22.1571 8.35598 21.6183 8.01473 21.0021 8.22882L7.69581 12.9836C6.78769 13.3126 6.80144 13.7851 7.54144 13.9992L10.9433 14.9867L18.8452 10.372C19.2171 10.1422 19.5552 10.2693 19.2771 10.4992L12.8852 15.8559Z" fill="white"/>
</g>
<defs>
<clipPath id="clip0_7_32">
<rect width="15" height="14" fill="white" transform="translate(7 7)"/>
</clipPath>
</defs>
</svg>
